<svg
	xmlns="http://www.w3.org/2000/svg" viewBox="0 0 64 67 " id="devfolio">
	<g data-name="Layer 2">
		<g data-name="Layer 1">
			<path fill="currentColor" stroke="currentColor" class="prime-color"
d="M60.33 36.44C60.3 52 48.61 64.74 33.76 66c0 0-19.07.49-25.39-.07a6.59 6.59 0 0 1-5.28-4 8.07 8.07 0 0 0 2.8.78c2.07.18 5.6.27 10.52.27 7.23 0 15.07-.2 15.15-.2h.14a31 31 0 0 0 20.44-10.2 32.46 32.46 0 0 0 8.15-17.93c.03.57.04 1.18.04 1.79z"></path>
			<path fill="currentColor" stroke="currentColor" d="M58 29.95c0 15.56-11.72 28.29-26.57 29.53 0 0-19.07.5-25.39-.06-3.39-.3-5.93-3.55-6-7.14L.1 7.33C.2 3.74 2.75.5 6.15.22c6.33-.53 25.39.06 25.39.06C46.38 1.6 58 14.39 58 29.95z"></path>
		</g>
	</g>
</svg>