
<svg version="1.0" xmlns="http://www.w3.org/2000/svg"
 width="700.000000pt" height="394.000000pt" viewBox="0 0 700.000000 394.000000"
 preserveAspectRatio="xMidYMid meet">

<g transform="translate(0.000000,394.000000) scale(0.100000,-0.100000)"
fill="#000000" stroke="none">
<path d="M978 2943 c-73 -3 -98 -7 -98 -17 0 -9 17 -15 47 -19 85 -9 83 2 83
-399 l0 -349 -25 -24 c-18 -18 -35 -25 -65 -25 -29 0 -40 -4 -40 -15 0 -13 28
-15 195 -15 167 0 195 2 195 15 0 11 -11 15 -40 15 -30 0 -47 7 -65 25 -24 24
-25 28 -25 183 l0 158 135 11 c122 9 140 13 182 39 65 41 98 105 98 194 0 56
-4 73 -28 108 -71 108 -163 127 -549 115z m346 -47 c68 -29 96 -83 96 -184 0
-51 -6 -76 -23 -106 -37 -65 -65 -79 -167 -84 l-90 -4 0 195 c0 147 3 197 13
201 19 9 136 -3 171 -18z"/>
<path d="M390 2926 c0 -9 17 -15 52 -18 32 -4 56 -12 64 -22 7 -10 16 -57 20
-104 9 -116 -2 -527 -17 -577 -25 -87 -130 -150 -210 -126 -44 13 -52 29 -37
69 17 43 -10 82 -56 82 -71 0 -90 -78 -33 -135 76 -76 278 -68 379 15 20 17
49 56 65 88 l28 57 5 307 c6 350 2 337 90 346 31 3 49 9 47 16 -2 7 -66 12
-200 14 -163 2 -197 0 -197 -12z"/>
<path d="M1700 2926 c0 -9 17 -15 51 -18 27 -3 55 -10 61 -16 21 -21 27 -102
27 -352 -1 -317 -5 -354 -48 -392 -18 -16 -45 -31 -62 -35 -16 -3 -29 -12 -29
-19 0 -11 30 -14 156 -14 116 0 155 3 152 12 -2 6 -22 18 -45 25 -22 8 -51 25
-64 39 l-24 26 -2 326 c-2 261 0 322 10 302 7 -13 82 -182 167 -375 120 -270
159 -350 173 -350 14 0 54 83 178 365 88 201 164 369 170 375 8 7 10 -93 7
-328 l-3 -339 -28 -24 c-19 -17 -40 -24 -68 -24 -28 0 -39 -4 -39 -15 0 -13
29 -15 205 -15 176 0 205 2 205 15 0 11 -12 15 -49 15 -33 0 -56 6 -72 19
l-24 19 0 361 c0 413 -5 391 89 399 39 3 56 9 56 18 0 11 -27 14 -133 14
l-133 0 -154 -350 c-84 -192 -156 -350 -159 -350 -3 1 -75 158 -160 350 l-154
350 -129 0 c-102 0 -128 -3 -128 -14z"/>
<path d="M3107 2726 c-76 -32 -123 -69 -158 -124 -38 -60 -49 -102 -49 -188 0
-103 21 -163 81 -228 69 -76 135 -107 243 -113 119 -8 205 19 279 87 80 73
102 128 102 255 0 85 -4 107 -24 147 -31 64 -90 121 -159 155 -48 24 -71 28
-157 31 -87 2 -107 0 -158 -22z m261 -25 c48 -24 85 -69 108 -132 24 -61 24
-256 1 -317 -39 -103 -110 -155 -211 -156 -165 -1 -244 88 -254 287 -6 124 14
207 65 266 37 44 61 60 108 72 48 13 138 3 183 -20z"/>
<path d="M3743 2743 c-48 -5 -59 -23 -15 -23 15 0 38 -7 50 -16 22 -15 22 -17
22 -285 0 -159 -4 -278 -10 -289 -6 -11 -26 -21 -50 -25 -84 -14 -35 -25 115
-25 147 0 202 11 115 23 -68 9 -70 13 -70 163 0 101 3 134 13 134 41 -1 64
-21 144 -129 47 -64 102 -133 121 -153 l36 -38 89 0 c65 0 88 3 85 12 -3 7
-19 16 -38 19 -49 10 -77 35 -172 155 -48 60 -97 117 -108 126 -21 17 -20 17
17 27 63 17 109 55 128 105 22 57 14 105 -26 150 -49 56 -94 69 -259 71 -80 2
-164 1 -187 -2z m329 -49 c68 -61 61 -211 -12 -249 -15 -8 -57 -17 -94 -21
l-66 -7 0 151 c0 172 -6 162 93 151 34 -4 67 -15 79 -25z"/>
<path d="M4646 2730 c-65 -26 -130 -90 -168 -168 -85 -171 -24 -375 137 -457
52 -27 68 -30 149 -30 69 0 106 6 154 23 34 12 76 22 92 22 l30 0 0 90 c0 100
15 130 65 130 14 0 25 5 25 10 0 6 -53 10 -140 10 -87 0 -140 -4 -140 -10 0
-5 12 -10 26 -10 53 0 64 -15 64 -85 0 -82 -14 -112 -64 -137 -104 -53 -236
-8 -290 99 -39 77 -44 261 -11 364 28 83 122 149 214 149 91 0 188 -81 214
-177 6 -24 15 -43 19 -43 4 0 8 50 8 110 0 67 -4 110 -10 110 -5 0 -10 -7 -10
-16 0 -8 -5 -24 -11 -36 -11 -20 -11 -20 -37 5 -70 67 -212 88 -316 47z"/>
<path d="M5501 2728 c-42 -108 -235 -557 -247 -576 -9 -14 -29 -29 -45 -35
-16 -6 -29 -17 -29 -24 0 -10 25 -13 100 -13 101 0 125 9 71 28 -52 18 -56 43
-25 133 l28 80 129 -3 129 -3 35 -87 c20 -47 33 -93 30 -101 -3 -8 -22 -17
-41 -21 -76 -14 -33 -26 94 -26 134 0 158 8 97 34 -38 15 -39 18 -201 406 -51
123 -99 226 -105 228 -6 2 -15 -7 -20 -20z m43 -246 l54 -132 -114 0 -114 0
20 49 c10 27 31 78 46 113 14 35 30 74 35 87 5 13 11 22 14 19 2 -2 29 -63 59
-136z"/>
<path d="M5940 2732 c0 -5 18 -12 40 -16 31 -5 43 -12 50 -32 12 -31 13 -524
1 -542 -4 -7 -25 -19 -47 -27 -74 -25 -53 -35 75 -35 67 0 121 4 121 9 0 5
-20 14 -45 20 -25 6 -49 19 -55 31 -7 12 -9 111 -8 276 l3 257 225 -299 c124
-164 231 -299 238 -302 9 -3 12 59 12 285 0 211 4 295 13 313 8 15 29 31 55
40 23 8 42 18 42 22 0 4 -54 8 -120 8 -66 0 -120 -4 -120 -8 0 -4 20 -13 45
-20 34 -9 48 -19 55 -38 6 -15 9 -114 8 -235 l-3 -208 -190 252 -190 252 -103
3 c-56 1 -102 -1 -102 -6z"/>
<path d="M4225 1872 c-110 -52 -134 -162 -66 -295 17 -33 30 -61 29 -62 -62
-35 -166 -133 -189 -177 -27 -52 -26 -148 2 -205 38 -79 141 -143 230 -143 51
0 129 33 187 80 l58 47 36 -38 c81 -84 201 -110 281 -60 31 19 67 65 67 86 0
13 -26 3 -52 -22 -21 -20 -37 -26 -72 -26 -54 0 -94 25 -152 96 l-41 50 55
111 c67 138 89 167 141 191 23 10 41 24 41 32 0 10 -29 13 -140 13 -112 0
-140 -3 -140 -14 0 -7 13 -16 30 -19 43 -9 70 -41 70 -82 0 -39 -26 -112 -57
-163 l-20 -33 -110 153 -111 153 47 29 c126 77 168 157 122 232 -44 72 -165
104 -246 66z m125 -27 c40 -21 60 -53 60 -98 0 -51 -20 -86 -76 -136 -55 -48
-56 -48 -103 43 -46 87 -39 149 21 186 39 24 60 25 98 5z m-52 -467 c44 -62
96 -139 117 -171 l38 -57 -24 -27 c-13 -14 -42 -34 -64 -44 -104 -48 -217 1
-271 116 -29 61 -30 106 -3 165 18 41 101 130 120 130 4 0 43 -51 87 -112z"/>
<path d="M5426 1879 c-212 -35 -350 -239 -333 -492 8 -122 36 -188 116 -268
82 -82 147 -110 272 -117 110 -6 176 13 258 73 l62 46 20 -46 c11 -25 24 -45
29 -45 6 0 10 64 10 156 0 113 -3 155 -11 152 -7 -2 -18 -28 -26 -57 -41 -160
-141 -243 -292 -242 -157 0 -265 114 -292 307 -20 141 9 303 70 394 98 146
317 154 439 15 38 -43 82 -143 82 -187 0 -10 7 -18 15 -18 13 0 15 24 15 160
0 132 -2 160 -14 160 -9 0 -21 -22 -31 -56 l-16 -55 -35 30 c-49 44 -120 77
-189 90 -65 12 -78 12 -149 0z"/>
<path d="M339 1861 c-65 -21 -135 -66 -174 -113 -110 -130 -139 -386 -60 -538
46 -90 124 -157 222 -191 48 -17 76 -20 163 -17 115 4 156 19 236 84 l42 34
16 -34 c9 -19 16 -39 16 -45 0 -6 7 -11 15 -11 13 0 15 23 15 150 0 120 -3
150 -14 150 -8 0 -16 -15 -20 -38 -8 -55 -62 -157 -99 -188 -82 -70 -215 -90
-308 -48 -131 60 -201 224 -185 429 12 149 47 238 120 302 56 49 115 67 199
61 136 -11 227 -93 267 -241 9 -34 22 -63 29 -65 9 -3 11 37 9 159 -2 119 -6
163 -15 167 -7 2 -15 -2 -17 -10 -2 -7 -9 -32 -15 -56 l-12 -42 -53 40 c-30
23 -79 50 -110 60 -71 25 -190 26 -267 1z"/>
<path d="M2664 1679 c-42 -12 -100 -77 -108 -122 -16 -88 34 -165 141 -217 37
-18 88 -42 111 -53 66 -32 102 -78 102 -132 0 -80 -67 -132 -161 -123 -79 8
-127 53 -159 149 -30 87 -40 74 -40 -50 0 -113 11 -141 31 -81 12 34 21 37 40
14 50 -61 192 -78 270 -32 106 62 125 214 36 299 -12 12 -71 46 -132 75 -60
30 -119 62 -131 72 -53 45 -59 109 -14 154 29 28 35 30 89 26 74 -5 112 -32
147 -103 14 -30 30 -55 35 -55 12 0 12 167 0 174 -5 3 -14 -8 -21 -24 l-12
-29 -32 23 c-58 43 -123 55 -192 35z"/>
<path d="M6280 1675 c-112 -32 -204 -112 -236 -207 -25 -76 -16 -217 18 -284
126 -244 524 -242 645 4 25 51 28 68 28 157 0 89 -3 106 -28 157 -33 68 -80
111 -162 149 -77 37 -185 46 -265 24z m198 -31 c85 -35 136 -122 148 -253 20
-215 -75 -361 -234 -361 -111 0 -179 40 -221 129 -24 51 -26 67 -26 186 0 122
2 133 28 188 29 59 75 102 124 117 46 14 141 11 181 -6z"/>
<path d="M990 1666 c0 -10 13 -16 37 -18 61 -5 64 -16 61 -316 -3 -248 -4
-264 -22 -278 -11 -8 -32 -14 -48 -14 -15 0 -28 -4 -28 -10 0 -6 57 -10 151
-10 97 0 148 4 144 10 -3 6 -19 10 -34 10 -15 0 -36 6 -46 14 -17 12 -19 28
-20 152 l0 139 170 0 170 0 0 -139 c-1 -155 -6 -166 -72 -166 -18 0 -33 -4
-33 -10 0 -6 57 -10 150 -10 93 0 150 4 150 10 0 6 -13 10 -28 10 -16 0 -37 6
-48 14 -18 14 -19 29 -19 296 0 309 -2 300 63 300 22 0 32 5 32 15 0 13 -23
15 -150 15 -127 0 -150 -2 -150 -15 0 -11 11 -15 39 -15 22 0 44 -6 51 -15 8
-10 15 -60 18 -135 l5 -120 -178 0 -177 0 4 119 c2 76 9 125 17 135 7 8 29 16
49 18 20 2 36 8 35 13 -2 6 -62 11 -148 13 -122 2 -145 0 -145 -12z"/>
<path d="M2092 1628 c-11 -29 -66 -161 -121 -293 -100 -239 -134 -295 -176
-295 -8 0 -15 -4 -15 -10 0 -6 40 -10 100 -10 55 0 100 3 100 8 0 4 -15 14
-33 22 -43 20 -45 46 -11 136 l29 74 125 0 126 0 37 -96 c42 -105 40 -124 -14
-124 -16 0 -29 -4 -29 -10 0 -6 50 -10 131 -10 128 0 147 6 91 29 -34 14 -43
31 -187 376 -58 140 -110 251 -118 253 -9 2 -22 -17 -35 -50z m56 -206 c29
-70 52 -131 52 -135 0 -4 -49 -7 -110 -7 -60 0 -110 3 -110 7 0 14 104 263
110 263 3 0 29 -57 58 -128z"/>
<path d="M3110 1665 c0 -10 10 -15 29 -15 52 0 55 -14 60 -242 4 -232 -3 -331
-26 -353 -8 -8 -28 -15 -44 -15 -16 0 -29 -4 -29 -10 0 -6 96 -10 269 -10
l268 0 7 53 c15 126 1 190 -24 110 -35 -110 -95 -148 -224 -141 -43 2 -81 9
-88 16 -9 9 -14 56 -16 152 l-4 140 70 0 c78 0 90 -8 99 -64 12 -72 23 -33 23
79 0 114 -12 151 -24 75 -8 -49 -27 -60 -105 -60 l-61 0 0 136 0 136 106 -4
c101 -3 107 -4 130 -31 13 -15 29 -45 35 -67 24 -79 36 -37 23 78 l-7 52 -233
0 c-201 0 -234 -2 -234 -15z"/>
<path d="M6822 1124 c-28 -20 -31 -83 -4 -107 25 -23 78 -21 102 3 61 61 -27
154 -98 104z"/>
</g>
</svg>
